<svg id="visual" viewBox="0 0 900 600" width="900" height="600" xmlns="http://www.w3.org/2000/svg" xmlns:xlink="http://www.w3.org/1999/xlink" version="1.1"><rect x="0" y="0" width="900" height="600" fill="#ECE8E3"></rect><g transform="translate(455.6745788747016 345.45188218138543)"><path d="M40.5 -71.3C61.4 -40.6 93.5 -40.7 96.2 -31.5C98.9 -22.2 72.3 -3.7 62.6 18.6C53 40.9 60.3 67 52.7 74.8C45.1 82.7 22.5 72.3 1.6 70.2C-19.4 68 -38.8 74.1 -43.3 65.2C-47.7 56.3 -37.2 32.5 -51.2 11.5C-65.1 -9.6 -103.4 -27.8 -107.4 -40.8C-111.3 -53.9 -80.9 -61.7 -57.3 -91.6C-33.7 -121.4 -16.8 -173.2 -3.5 -168.3C9.8 -163.5 19.6 -102 40.5 -71.3" fill="#CCCCCC"></path></g></svg>